# Blender 4.3.2
# www.blender.org
mtllib mk_blockfort_collision.mtl
o coli
v -16.051270 -4.724612 -41.287354
v -16.027100 4.373532 -41.288330
v -16.051270 -4.724611 41.207520
v -16.027100 4.373532 41.206543
v 66.133179 -4.724611 41.207520
v 66.157349 4.373532 41.206543
v 66.133179 -4.724612 -41.311279
v 66.157349 4.373532 -41.312256
v -16.051270 -4.724612 -41.287354
v -16.051270 -4.724611 41.207520
v 66.133179 -4.724611 41.207520
v 66.133179 -4.724612 -41.311279
v -19.470028 4.373532 -44.743763
v -19.470028 4.373532 44.662979
v 69.600281 4.373532 44.662979
v 69.600281 4.373532 -44.769691
v -11.586664 32.261234 -36.831768
v -11.586664 32.261234 36.748692
v 61.716919 32.261234 36.748692
v 61.716919 32.261234 -36.853107
vn 1.0000 -0.0027 -0.0000
vn -0.0000 -0.0001 -1.0000
vn -1.0000 0.0027 -0.0000
vn 0.0003 0.0001 1.0000
vn -0.0000 -0.0000 -0.0000
vn -0.0000 -0.0000 1.0000
vn -0.0000 1.0000 -0.0000
vn 0.0003 -0.2730 0.9620
vn -0.0000 -0.2730 -0.9620
vn -0.9623 -0.2720 -0.0000
vn 0.9623 -0.2720 -0.0000
s 0
usemtl metal
f 1//1 2//1 4//1 3//1
f 3//2 4//2 6//2 5//2
f 5//3 6//3 8//3 7//3
f 2//4 1//4 7//4 8//4
f 5//5 7//5 12//5 11//5
f 1//5 3//5 10//5 9//5
f 7//6 1//6 9//6 12//6
f 10//7 11//7 12//7 9//7
f 3//6 5//6 11//6 10//6
f 8//7 6//7 15//7 16//7
f 4//7 2//7 13//7 14//7
f 2//7 8//7 16//7 13//7
f 6//7 4//7 14//7 15//7
f 13//8 16//8 20//8 17//8
f 15//9 14//9 18//9 19//9
f 16//10 15//10 19//10 20//10
f 14//11 13//11 17//11 18//11
o units
v 53.823486 -4.634274 28.746611
v 53.798828 -0.530760 28.746611
v 31.022314 -0.530760 28.746611
v 31.022314 -4.619383 28.746611
v 43.213135 -0.530760 28.746611
v 53.823486 -0.555419 18.143799
v 53.838135 -4.614012 33.911476
v 43.191406 -4.644041 33.911476
v 43.214600 -0.555417 33.911476
v 31.022314 -0.530759 33.911476
v 31.022314 -4.619382 33.911476
v 31.022314 -4.619384 5.960450
v 31.022314 -0.530761 5.935791
v 58.975586 -4.609617 28.746611
v 58.975586 -0.530761 18.145508
v 58.975586 -4.614013 18.143311
v 53.823486 -0.530762 5.935791
v 58.975586 -0.506104 5.937500
v 58.975586 -4.589355 5.935303
v 36.929199 -0.530761 11.940674
v 36.929443 -0.530761 16.013184
v 44.645752 3.555421 11.942627
v 44.645996 3.555421 16.015137
v 50.913574 3.555421 11.940674
v 50.913818 3.555421 16.013184
v 44.645752 -0.530761 11.942627
v 50.913574 -0.530762 11.940674
v 36.924072 3.555421 16.015137
v 50.913574 3.555421 25.794678
v 50.913574 -0.530762 25.794678
v 36.929443 3.555421 25.794678
v 36.929443 -0.530762 25.794678
v 18.520996 -0.530761 10.397949
v 18.520996 -0.530761 8.140381
v 18.520996 -1.191649 8.140381
v 18.520996 -1.191649 10.397949
v 31.022314 -1.191649 10.397949
v 31.022314 -1.191649 8.140381
v 31.022314 -0.530761 8.140381
v 31.022314 -0.530761 10.397949
v 12.533936 3.555422 24.276123
v 12.533936 3.555422 21.082031
v 12.533936 3.016848 21.082031
v 12.533936 3.016848 24.276123
v 36.942383 3.016848 24.276123
v 36.942383 3.016848 21.082031
v 36.942383 3.555422 21.082031
v 36.942383 3.555422 24.276123
v -4.283623 -4.608640 28.746338
v -4.283623 -0.505126 28.721680
v -4.283621 -0.505126 5.945166
v -4.283621 -4.593749 5.945166
v -4.283621 -0.505126 18.135986
v 6.319191 -0.529785 28.746338
v -9.448486 -4.588377 28.760986
v -9.448486 -4.618406 18.114258
v -9.448486 -0.529784 18.137451
v -9.448486 -0.505126 5.945166
v -9.448486 -4.593748 5.945164
v 18.502541 -4.593750 5.945166
v 18.527199 -0.505127 5.945166
v -4.283623 -4.583982 33.898438
v 6.317482 -0.505127 33.898438
v 6.319679 -4.588378 33.898438
v 18.527199 -0.505128 28.746338
v 18.525490 -0.480470 33.898438
v 18.527687 -4.563721 33.898438
v 12.522316 -0.505127 11.852051
v 8.449806 -0.505127 11.852295
v 12.520363 3.581055 19.568604
v 8.447853 3.581055 19.568848
v 12.522316 3.581054 25.836426
v 8.449806 3.581054 25.836670
v 12.520363 -0.505128 19.568604
v 12.522316 -0.505128 25.836426
v 8.447853 3.581055 11.846924
v -1.331688 3.581054 25.836426
v -1.331688 -0.505128 25.836426
v -1.331688 3.581054 11.852295
v -1.331688 -0.505128 11.852295
v 14.065041 -0.505127 -6.556152
v 16.322609 -0.505128 -6.556152
v 16.322609 -1.166016 -6.556152
v 14.065041 -1.166015 -6.556152
v 14.065041 -1.166015 5.945166
v 16.322609 -1.166016 5.945166
v 16.322609 -0.505128 5.945166
v 14.065041 -0.505127 5.945166
v 0.186867 3.581055 -12.543213
v 3.380959 3.581055 -12.543213
v 3.380959 3.042481 -12.543213
v 0.186867 3.042481 -12.543213
v 0.186867 3.042481 11.865234
v 3.380959 3.042481 11.865234
v 3.380959 3.581055 11.865234
v 0.186867 3.581055 11.865234
v -4.291016 -4.609621 -29.358574
v -4.266357 -0.506107 -29.358574
v 18.510157 -0.506107 -29.358574
v 18.510157 -4.594729 -29.358574
v 6.319335 -0.506107 -29.358574
v -4.291016 -0.530766 -18.755760
v -4.305666 -4.589358 -34.523438
v 6.341063 -4.619387 -34.523438
v 6.317871 -0.530765 -34.523438
v 18.510157 -0.506107 -34.523438
v 18.510157 -4.594729 -34.523438
v 18.510159 -4.594731 -6.572412
v 18.510159 -0.506109 -6.547754
v -9.443115 -4.584963 -29.358574
v -9.443113 -0.506108 -18.757469
v -9.443113 -4.589359 -18.755272
v -4.291014 -0.506109 -6.547752
v -9.443113 -0.481451 -6.549461
v -9.443113 -4.564702 -6.547264
v 12.603272 -0.506108 -12.552635
v 12.603028 -0.506108 -16.625145
v 4.886721 3.580074 -12.554588
v 4.886476 3.580074 -16.627098
v -1.381102 3.580073 -12.552635
v -1.381346 3.580073 -16.625145
v 4.886720 -0.506109 -12.554588
v -1.381102 -0.506109 -12.552635
v 12.608399 3.580074 -16.627098
v -1.381103 3.580073 -26.406639
v -1.381104 -0.506109 -26.406639
v 12.603027 3.580073 -26.406639
v 12.603027 -0.506109 -26.406639
v 31.011477 -0.506109 -11.009914
v 31.011477 -0.506109 -8.752346
v 31.011477 -1.166997 -8.752346
v 31.011477 -1.166996 -11.009914
v 18.510159 -1.166996 -11.009912
v 18.510159 -1.166997 -8.752344
v 18.510159 -0.506109 -8.752344
v 18.510159 -0.506109 -11.009912
v 36.998535 3.580074 -24.888086
v 36.998535 3.580074 -21.693995
v 36.998535 3.041500 -21.693995
v 36.998535 3.041500 -24.888086
v 12.590088 3.041500 -24.888084
v 12.590088 3.041500 -21.693993
v 12.590088 3.580074 -21.693993
v 12.590088 3.580074 -24.888084
v 53.816578 -4.609620 -29.365479
v 53.816582 -0.506106 -29.340820
v 53.816582 -0.506106 -6.564306
v 53.816582 -4.594728 -6.564306
v 53.816582 -0.506106 -18.755127
v 43.213768 -0.530765 -29.365479
v 58.981441 -4.589357 -29.380131
v 58.981445 -4.619386 -18.733400
v 58.981445 -0.530763 -18.756592
v 58.981445 -0.506106 -6.564306
v 58.981445 -4.594728 -6.564306
v 31.030418 -4.594729 -6.564302
v 31.005762 -0.506107 -6.564302
v 53.816578 -4.584962 -34.517578
v 43.215477 -0.506107 -34.517574
v 43.213280 -4.589358 -34.517574
v 31.005758 -0.506108 -29.365475
v 31.007465 -0.481450 -34.517574
v 31.005268 -4.564701 -34.517574
v 37.010643 -0.506107 -12.471189
v 41.083153 -0.506107 -12.471434
v 37.012596 3.580075 -20.187740
v 41.085106 3.580075 -20.187986
v 37.010643 3.580075 -26.455563
v 41.083153 3.580075 -26.455807
v 37.012596 -0.506107 -20.187742
v 37.010643 -0.506108 -26.455563
v 41.085106 3.580075 -12.466063
v 50.864647 3.580075 -26.455566
v 50.864647 -0.506108 -26.455566
v 50.864647 3.580074 -12.471436
v 50.864647 -0.506108 -12.471436
v 35.467926 -0.506107 5.937016
v 33.210358 -0.506107 5.937016
v 33.210354 -1.166996 5.937016
v 35.467922 -1.166995 5.937016
v 35.467918 -1.166995 -6.564302
v 33.210350 -1.166996 -6.564302
v 33.210350 -0.506107 -6.564302
v 35.467918 -0.506107 -6.564302
v 49.346096 3.580076 11.924072
v 46.152004 3.580075 11.924072
v 46.152004 3.041501 11.924072
v 49.346096 3.041502 11.924072
v 49.346092 3.041502 -12.484375
v 46.152000 3.041501 -12.484373
v 46.152000 3.580075 -12.484373
v 49.346092 3.580076 -12.484375
vn -0.0000 -0.0000 1.0000
vn 0.3588 0.9334 -0.0002
vn -1.0000 -0.0000 -0.0000
vn 0.0020 1.0000 0.0048
vn -0.0000 1.0000 -0.0000
vn 1.0000 0.0060 0.0023
vn -0.0045 0.9333 0.3591
vn 1.0000 -0.0000 -0.0000
vn -0.0048 1.0000 0.0020
vn -0.0000 1.0000 -0.0023
vn -0.0004 -0.0029 -1.0000
vn 0.0004 1.0000 0.0009
vn 0.0004 1.0000 0.0010
vn 0.0005 1.0000 0.0002
vn 0.0006 1.0000 0.0003
vn -0.4680 0.8837 -0.0000
vn -0.0003 -0.0000 -1.0000
vn 0.0003 -0.0000 -1.0000
vn -0.0000 0.0005 -1.0000
vn -1.0000 -0.0007 0.0003
vn -0.0000 -1.0000 -0.0000
vn -0.0000 -0.0000 -1.0000
vn 0.0002 0.9334 0.3588
vn -0.0023 0.0060 1.0000
vn -0.3591 0.9333 -0.0045
vn -0.0020 1.0000 -0.0048
vn 0.0023 1.0000 -0.0000
vn 1.0000 -0.0029 -0.0004
vn -0.0009 1.0000 0.0004
vn -0.0010 1.0000 0.0004
vn -0.0002 1.0000 0.0005
vn -0.0003 1.0000 0.0006
vn -0.0000 0.8837 -0.4680
vn 1.0000 -0.0000 -0.0003
vn 1.0000 -0.0000 0.0003
vn 1.0000 0.0005 -0.0000
vn -0.0003 -0.0007 -1.0000
vn -0.3588 0.9334 0.0002
vn -1.0000 0.0060 -0.0023
vn 0.0045 0.9333 -0.3591
vn 0.0048 1.0000 -0.0020
vn -0.0000 1.0000 0.0023
vn 0.0004 -0.0029 1.0000
vn -0.0004 1.0000 -0.0009
vn -0.0004 1.0000 -0.0010
vn -0.0005 1.0000 -0.0002
vn -0.0006 1.0000 -0.0003
vn 0.4680 0.8837 -0.0000
vn 0.0003 -0.0000 1.0000
vn -0.0003 -0.0000 1.0000
vn -0.0000 0.0005 1.0000
vn 1.0000 -0.0007 -0.0003
vn -0.0002 0.9334 -0.3588
vn 0.0023 0.0060 -1.0000
vn 0.3591 0.9333 0.0045
vn -0.0023 1.0000 -0.0000
vn -1.0000 -0.0029 0.0004
vn 0.0009 1.0000 -0.0004
vn 0.0010 1.0000 -0.0004
vn 0.0002 1.0000 -0.0005
vn 0.0003 1.0000 -0.0006
vn -0.0000 0.8837 0.4680
vn -1.0000 -0.0000 0.0003
vn -1.0000 -0.0000 -0.0003
vn -1.0000 0.0005 -0.0000
vn 0.0003 -0.0007 1.0000
s 0
usemtl metal
f 22//12 25//12 21//12
f 21//13 25//13 29//13 27//13
f 28//12 27//12 29//12
f 23//14 24//14 31//14 30//14
f 30//12 31//12 28//12 29//12
f 33//14 32//14 24//14 23//14
f 25//15 30//15 29//15
f 23//16 30//16 25//16
f 21//17 26//17 22//17
f 26//18 21//18 34//18 35//18
f 35//19 34//19 36//19
f 35//19 36//19 39//19 38//19
f 26//20 35//20 38//20 37//20
f 22//21 26//21 25//21
f 32//22 33//22 37//22 38//22 39//22
f 26//23 37//23 33//24
f 33//25 23//25 25//25
f 25//26 26//26 33//26
f 40//27 41//27 43//27 42//27
f 42//16 43//16 45//16 44//16
f 42//28 44//28 47//28 46//28
f 42//29 46//29 40//29
f 43//30 41//30 48//30
f 47//19 44//19 49//19 50//19
f 50//12 49//12 51//12 52//12
f 41//31 52//31 51//31 48//31
f 49//16 45//16 43//16
f 43//16 48//16 51//16
f 51//16 49//16 43//16
f 65//12 68//12 61//12 64//12
f 58//32 57//32 56//32 55//32
f 57//12 60//12 53//12 56//12
f 59//33 58//33 55//33 54//33
f 60//16 59//16 54//16 53//16
f 67//33 66//33 63//33 62//33
f 68//16 67//16 62//16 61//16
f 66//32 65//32 64//32 63//32
f 70//14 73//14 69//14
f 69//34 73//34 77//34 75//34
f 76//14 75//14 77//14
f 71//33 72//33 79//33 78//33
f 78//14 79//14 76//14 77//14
f 81//33 80//33 72//33 71//33
f 73//20 78//20 77//20
f 71//16 78//16 73//16
f 69//35 74//35 70//35
f 74//36 69//36 82//36 83//36
f 83//12 82//12 84//12
f 83//12 84//12 87//12 86//12
f 74//37 83//37 86//37 85//37
f 70//38 74//38 73//38
f 80//39 81//39 85//39 86//39 87//39
f 74//40 85//40 81//41
f 81//42 71//42 73//42
f 73//43 74//43 81//43
f 88//44 89//44 91//44 90//44
f 90//16 91//16 93//16 92//16
f 90//45 92//45 95//45 94//45
f 90//46 94//46 88//46
f 91//47 89//47 96//47
f 95//12 92//12 97//12 98//12
f 98//14 97//14 99//14 100//14
f 89//48 100//48 99//48 96//48
f 97//16 93//16 91//16
f 91//16 96//16 99//16
f 99//16 97//16 91//16
f 113//14 116//14 109//14 112//14
f 106//32 105//32 104//32 103//32
f 105//14 108//14 101//14 104//14
f 107//19 106//19 103//19 102//19
f 108//16 107//16 102//16 101//16
f 115//19 114//19 111//19 110//19
f 116//16 115//16 110//16 109//16
f 114//32 113//32 112//32 111//32
f 118//33 121//33 117//33
f 117//49 121//49 125//49 123//49
f 124//33 123//33 125//33
f 119//19 120//19 127//19 126//19
f 126//33 127//33 124//33 125//33
f 129//19 128//19 120//19 119//19
f 121//37 126//37 125//37
f 119//16 126//16 121//16
f 117//50 122//50 118//50
f 122//51 117//51 130//51 131//51
f 131//14 130//14 132//14
f 131//14 132//14 135//14 134//14
f 122//52 131//52 134//52 133//52
f 118//53 122//53 121//53
f 128//54 129//54 133//54 134//54 135//54
f 122//55 133//55 129//56
f 129//57 119//57 121//57
f 121//58 122//58 129//58
f 136//59 137//59 139//59 138//59
f 138//16 139//16 141//16 140//16
f 138//60 140//60 143//60 142//60
f 138//61 142//61 136//61
f 139//62 137//62 144//62
f 143//14 140//14 145//14 146//14
f 146//33 145//33 147//33 148//33
f 137//63 148//63 147//63 144//63
f 145//16 141//16 139//16
f 139//16 144//16 147//16
f 147//16 145//16 139//16
f 161//33 164//33 157//33 160//33
f 154//32 153//32 152//32 151//32
f 153//33 156//33 149//33 152//33
f 155//12 154//12 151//12 150//12
f 156//16 155//16 150//16 149//16
f 163//12 162//12 159//12 158//12
f 164//16 163//16 158//16 157//16
f 162//32 161//32 160//32 159//32
f 166//19 169//19 165//19
f 165//64 169//64 173//64 171//64
f 172//19 171//19 173//19
f 167//12 168//12 175//12 174//12
f 174//19 175//19 172//19 173//19
f 177//12 176//12 168//12 167//12
f 169//52 174//52 173//52
f 167//16 174//16 169//16
f 165//65 170//65 166//65
f 170//66 165//66 178//66 179//66
f 179//33 178//33 180//33
f 179//33 180//33 183//33 182//33
f 170//15 179//15 182//15 181//15
f 166//67 170//67 169//67
f 176//68 177//68 181//68 182//68 183//68
f 170//69 181//69 177//70
f 177//71 167//71 169//71
f 169//72 170//72 177//72
f 184//73 185//73 187//73 186//73
f 186//16 187//16 189//16 188//16
f 186//74 188//74 191//74 190//74
f 186//75 190//75 184//75
f 187//76 185//76 192//76
f 191//33 188//33 193//33 194//33
f 194//19 193//19 195//19 196//19
f 185//77 196//77 195//77 192//77
f 193//16 189//16 187//16
f 187//16 192//16 195//16
f 195//16 193//16 187//16
f 209//19 212//19 205//19 208//19
f 202//32 201//32 200//32 199//32
f 201//19 204//19 197//19 200//19
f 203//14 202//14 199//14 198//14
f 204//16 203//16 198//16 197//16
f 211//14 210//14 207//14 206//14
f 212//16 211//16 206//16 205//16
f 210//32 209//32 208//32 207//32
